# Blender v2.79 (sub 0) OBJ File: 'cube.blend'
# www.blender.org
mtllib cube.mtl
o Cube
v 0.120055 0.029202 -0.119141
v 0.119452 0.030312 0.120856
v -0.120547 0.030801 0.120250
v -0.119944 0.029691 -0.119746
v 0.120547 0.269199 -0.120250
v 0.119944 0.270309 0.119746
v -0.120055 0.270798 0.119141
v -0.119452 0.269688 -0.120856
vn -0.0020 -1.0000 0.0046
vn 0.0020 1.0000 -0.0046
vn 1.0000 -0.0020 0.0025
vn -0.0025 0.0046 1.0000
vn -1.0000 0.0020 -0.0025
vn 0.0025 -0.0046 -1.0000
usemtl Material.001
s off
f 1//1 2//1 3//1 4//1
f 5//2 8//2 7//2 6//2
f 1//3 5//3 6//3 2//3
f 2//4 6//4 7//4 3//4
f 3//5 7//5 8//5 4//5
f 5//6 1//6 4//6 8//6
